<svg fill="none" xmlns="http://www.w3.org/2000/svg" viewBox="0 0 150 150"><path d="M112.323 23.153c-2.227-3.8709-6.35-6.2597-10.816-6.2666l-52.7601-.0811c-4.4658-.0069-8.5961 2.3692-10.8349 6.2333L11.4616 68.6898c-2.23887 3.8641-2.24619 8.629-.0192 12.5l26.3098 45.7322c2.227 3.871 6.3499 6.26 10.8157 6.267l52.7601.081c4.466.007 8.596-2.369 10.835-6.234l26.451-45.6507c2.238-3.8641 2.246-8.629.019-12.5l-26.31-45.7323z" fill="#fff" stroke="#B9B9B9"/><path d="M106.115 125.434c-.721 1.184-2.004 1.91-3.39 1.919l-48.2378.313c-3.1148.02-5.0564-3.371-3.4627-6.047l24.8123-41.6656C76.5581 78.7421 77.8638 78 79.2736 78h48.6074c3.121 0 5.04 3.4149 3.416 6.0804l-25.182 41.3536z" fill="url(#paint0_linear)"/><path d="M16.1534 77.9662c-.715-1.2188-.7338-2.7244-.0497-3.9607l23.9268-43.2361c1.5159-2.7393 5.4491-2.7539 6.9852-.0259l24.3462 43.2354c.7038 1.2499.6844 2.7811-.0508 4.0128L46.9645 118.78c-1.5587 2.611-5.346 2.597-6.8848-.026L16.1534 77.9662z" fill="url(#paint1_linear)"/><path d="M103.359 22.0978c1.432 0 2.755.7653 3.468 2.0067l24.887 43.3002c1.533 2.6667-.392 5.9932-3.468 5.9932H79.8536c-1.4527 0-2.7912-.7875-3.4966-2.0574L52.3014 28.0403c-1.4812-2.6661.4467-5.9425 3.4966-5.9425h47.561z" fill="url(#paint2_linear)"/><path d="M101.506 171.386c4.288.007 8.246 2.3 10.383 6.016l26.31 45.733c2.138 3.716 2.131 8.29-.018 12l-26.451 45.651c-2.149 3.709-6.114 5.99-10.401 5.984l-52.7603-.081c-4.2872-.007-8.2452-2.3-10.3831-6.016L11.8758 234.94c-2.13792-3.716-2.13089-8.29.0184-12l26.4504-45.651c2.1493-3.709 6.1144-5.99 10.4015-5.984l52.7599.081z" fill="#fff"/><defs><linearGradient id="paint0_linear" x1="79" y1="123" x2="109" y2="36" gradientUnits="userSpaceOnUse"><stop stop-color="#B9B9B9"/><stop offset="1" stop-color="#DFDFDF"/></linearGradient><linearGradient id="paint1_linear" x1="19.5" y1="94.5" x2="88" y2="31.5" gradientUnits="userSpaceOnUse"><stop stop-color="#B5B5B5"/><stop offset="1" stop-color="#E3E3E3"/></linearGradient><linearGradient id="paint2_linear" x1="61" y1="88.5" x2="100" y2="30.5" gradientUnits="userSpaceOnUse"><stop stop-color="#BEBEBE"/><stop offset="1" stop-color="#E2E2E2"/></linearGradient></defs></svg>