<svg width="440" height="138" viewBox="0 0 440 138" fill="none" xmlns="http://www.w3.org/2000/svg">
<path d="M60.654 67.779L88.221 19.2468L115.788 67.779H60.654Z" fill="#50AC9C" stroke="white" stroke-width="3"/>
<path d="M59.0807 68.412L88.3659 119.969H29.7956L59.0807 68.412Z" fill="#50AC9C"/>
<mask id="path-3-inside-1" fill="teal">
<path fill-rule="evenodd" clip-rule="evenodd" d="M59.2222 68.779L29.937 17.2221L0.684451 68.7217H0.530396L29.8155 120.279L59.0681 68.779H59.2222Z"/>
</mask>
<path fill-rule="evenodd" clip-rule="evenodd" d="M59.2222 68.779L29.937 17.2221L0.684451 68.7217H0.530396L29.8155 120.279L59.0681 68.779H59.2222Z" fill="#50AC9C"/>
<path d="M29.937 17.2221L31.6761 16.2343L29.937 13.1727L28.198 16.2343L29.937 17.2221ZM59.2222 68.779V70.779H62.6584L60.9612 67.7912L59.2222 68.779ZM0.684451 68.7217V70.7217H1.84854L2.42349 69.7095L0.684451 68.7217ZM0.530396 68.7217V66.7217H-2.90576L-1.20864 69.7095L0.530396 68.7217ZM29.8155 120.279L28.0765 121.266L29.8155 124.328L31.5546 121.266L29.8155 120.279ZM59.0681 68.779V66.779H57.904L57.3291 67.7912L59.0681 68.779ZM28.198 18.2099L57.4832 69.7668L60.9612 67.7912L31.6761 16.2343L28.198 18.2099ZM2.42349 69.7095L31.6761 18.2099L28.198 16.2343L-1.05459 67.7339L2.42349 69.7095ZM0.530396 70.7217H0.684451V66.7217H0.530396V70.7217ZM31.5546 119.291L2.26943 67.7339L-1.20864 69.7095L28.0765 121.266L31.5546 119.291ZM57.3291 67.7912L28.0765 119.291L31.5546 121.266L60.8072 69.7668L57.3291 67.7912ZM59.2222 66.779H59.0681V70.779H59.2222V66.779Z" fill="white" mask="url(#path-3-inside-1)"/>
<path d="M115.952 69.6374L88.3846 118.17L60.8176 69.6374L115.952 69.6374Z" fill="#267C73" stroke="white" stroke-width="3"/>
<path d="M86.6477 18.1856L59.0807 66.7178L31.5136 18.1856L86.6477 18.1856Z" fill="#87CBC3" stroke="white" stroke-width="3"/>
<path d="M86.6477 118.969L59.0807 70.4367L31.5136 118.969L86.6477 118.969Z" fill="#40988D" stroke="white" stroke-width="3"/>
<path d="M170.04 36.8C170.872 36.8 171.544 37.056 172.056 37.568C172.632 38.08 172.92 38.752 172.92 39.584C172.92 40.416 172.632 41.088 172.056 41.6C171.544 42.048 170.872 42.272 170.04 42.272H150.168V101.12C150.168 101.952 149.88 102.656 149.304 103.232C148.728 103.744 148.024 104 147.192 104C146.296 104 145.56 103.744 144.984 103.232C144.472 102.656 144.216 101.952 144.216 101.12V42.272H124.344C123.512 42.272 122.808 42.016 122.232 41.504C121.72 40.992 121.464 40.32 121.464 39.488C121.464 38.72 121.72 38.08 122.232 37.568C122.808 37.056 123.512 36.8 124.344 36.8H170.04ZM223.262 76.64C223.262 77.408 222.974 78.08 222.398 78.656C221.822 79.168 221.15 79.424 220.382 79.424H184.094C184.094 83.264 184.862 86.72 186.398 89.792C187.998 92.8 190.238 95.2 193.118 96.992C196.062 98.72 199.518 99.584 203.486 99.584C206.558 99.584 209.31 98.944 211.742 97.664C214.174 96.384 216.126 94.752 217.598 92.768C218.302 92.192 218.974 91.904 219.614 91.904C220.254 91.904 220.83 92.16 221.342 92.672C221.854 93.184 222.11 93.76 222.11 94.4C222.11 95.104 221.79 95.776 221.15 96.416C219.102 98.912 216.51 100.96 213.374 102.56C210.302 104.16 207.038 104.96 203.582 104.96C198.654 104.96 194.302 103.904 190.526 101.792C186.75 99.68 183.806 96.736 181.694 92.96C179.582 89.12 178.526 84.704 178.526 79.712C178.526 74.464 179.55 69.888 181.598 65.984C183.71 62.016 186.494 59.008 189.95 56.96C193.406 54.848 197.086 53.792 200.99 53.792C204.83 53.792 208.414 54.688 211.742 56.48C215.134 58.272 217.886 60.896 219.998 64.352C222.11 67.808 223.198 71.904 223.262 76.64ZM200.99 59.36C197.278 59.36 193.822 60.64 190.622 63.2C187.486 65.76 185.47 69.44 184.574 74.24H217.31V73.472C216.99 70.592 216.03 68.096 214.43 65.984C212.83 63.808 210.814 62.176 208.382 61.088C206.014 59.936 203.55 59.36 200.99 59.36ZM284.949 54.944C285.781 54.944 286.453 55.232 286.965 55.808C287.541 56.384 287.829 57.088 287.829 57.92V101.12C287.829 101.952 287.541 102.656 286.965 103.232C286.453 103.744 285.781 104 284.949 104C284.117 104 283.413 103.744 282.837 103.232C282.325 102.656 282.069 101.952 282.069 101.12V94.688C280.469 97.568 278.069 100 274.869 101.984C271.669 103.968 268.181 104.96 264.405 104.96C260.117 104.96 256.245 103.84 252.789 101.6C249.397 99.36 246.709 96.288 244.725 92.384C242.805 88.48 241.845 84.096 241.845 79.232C241.845 74.368 242.837 70.016 244.821 66.176C246.805 62.272 249.493 59.232 252.885 57.056C256.341 54.88 260.149 53.792 264.309 53.792C268.149 53.792 271.669 54.72 274.869 56.576C278.069 58.432 280.469 60.864 282.069 63.872V57.92C282.069 57.088 282.325 56.384 282.837 55.808C283.413 55.232 284.117 54.944 284.949 54.944ZM264.981 99.584C268.309 99.584 271.285 98.72 273.909 96.992C276.597 95.2 278.677 92.768 280.149 89.696C281.685 86.56 282.453 83.072 282.453 79.232C282.453 75.52 281.685 72.128 280.149 69.056C278.677 65.984 276.597 63.584 273.909 61.856C271.285 60.064 268.309 59.168 264.981 59.168C261.653 59.168 258.645 60.032 255.957 61.76C253.333 63.488 251.253 65.888 249.717 68.96C248.245 71.968 247.509 75.392 247.509 79.232C247.509 83.072 248.245 86.56 249.717 89.696C251.189 92.768 253.237 95.2 255.861 96.992C258.549 98.72 261.589 99.584 264.981 99.584ZM318.795 101.12C318.795 101.952 318.507 102.656 317.931 103.232C317.419 103.744 316.747 104 315.915 104C315.083 104 314.379 103.744 313.803 103.232C313.291 102.656 313.035 101.952 313.035 101.12V35.84C313.035 35.008 313.291 34.336 313.803 33.824C314.379 33.248 315.083 32.96 315.915 32.96C316.747 32.96 317.419 33.248 317.931 33.824C318.507 34.336 318.795 35.008 318.795 35.84V101.12ZM393.144 36.8C393.976 36.8 394.648 37.088 395.16 37.664C395.736 38.176 396.024 38.848 396.024 39.68V79.424C396.024 84.096 394.904 88.384 392.664 92.288C390.424 96.192 387.384 99.264 383.544 101.504C379.704 103.744 375.48 104.864 370.872 104.864C366.2 104.864 361.944 103.744 358.104 101.504C354.264 99.264 351.224 96.192 348.984 92.288C346.744 88.384 345.624 84.096 345.624 79.424V39.68C345.624 38.848 345.88 38.176 346.392 37.664C346.968 37.088 347.736 36.8 348.696 36.8C349.464 36.8 350.136 37.088 350.712 37.664C351.288 38.176 351.576 38.848 351.576 39.68V79.424C351.576 83.008 352.44 86.304 354.168 89.312C355.896 92.32 358.232 94.72 361.176 96.512C364.184 98.24 367.416 99.104 370.872 99.104C374.392 99.104 377.624 98.24 380.568 96.512C383.576 94.72 385.944 92.32 387.672 89.312C389.464 86.304 390.36 83.008 390.36 79.424V39.68C390.36 38.848 390.616 38.176 391.128 37.664C391.64 37.088 392.312 36.8 393.144 36.8ZM429.71 101.024C429.646 101.856 429.326 102.56 428.75 103.136C428.174 103.712 427.47 104 426.638 104C425.742 104 425.006 103.744 424.43 103.232C423.918 102.656 423.662 101.92 423.662 101.024V39.776C423.662 38.88 423.95 38.176 424.526 37.664C425.102 37.088 425.838 36.8 426.734 36.8C427.566 36.8 428.27 37.088 428.846 37.664C429.422 38.24 429.71 38.944 429.71 39.776V101.024Z" fill="white"/>
</svg>
