<svg fill="none" xmlns="http://www.w3.org/2000/svg" viewBox="0 0 183 183"><g filter="url(#filter0_d)"><path d="M117.506 33.386c4.288.007 8.246 2.3 10.383 6.016l26.31 45.733a12 12 0 01-.018 12l-26.451 45.651a12.001 12.001 0 01-10.401 5.984l-52.76-.081a12.001 12.001 0 01-10.383-6.016L27.876 96.94a12 12 0 01.018-12l26.45-45.65a12 12 0 0110.402-5.985l52.76.081z" fill="#fff"/></g><path d="M94.029 99.226l24.328 42.02c1.351 2.334-.333 5.254-3.029 5.254H66.672c-2.696 0-4.38-2.92-3.029-5.254l24.328-42.02c1.348-2.329 4.71-2.329 6.058 0z" fill="#D6D6D6" stroke="#fff" stroke-width="3"/><path d="M87.971 82.774l-24.328-42.02c-1.35-2.334.333-5.254 3.03-5.254h48.655c2.696 0 4.38 2.92 3.029 5.254l-24.328 42.02c-1.348 2.329-4.71 2.329-6.058 0z" fill="gray" stroke="#fff" stroke-width="3"/><path d="M127.029 42.226l24.328 42.02c1.351 2.334-.333 5.254-3.029 5.254H99.672c-2.696 0-4.38-2.92-3.029-5.254l24.328-42.02c1.348-2.329 4.71-2.329 6.058 0z" fill="#A6A6A6" stroke="#fff" stroke-width="3"/><path d="M120.971 139.774l-24.328-42.02c-1.35-2.334.333-5.254 3.03-5.254h48.655c2.696 0 4.38 2.92 3.029 5.254l-24.328 42.02c-1.348 2.329-4.71 2.329-6.058 0z" fill="gray" stroke="#fff" stroke-width="3"/><path fill-rule="evenodd" clip-rule="evenodd" d="M87.703 93.773a5 5 0 000-4.79l-23.788-43.59c-1.895-3.474-6.882-3.474-8.778 0L31.35 88.983a5 5 0 000 4.79l23.787 43.59c1.896 3.473 6.883 3.473 8.778 0l23.788-43.59z" fill="#5F5F5F"/><defs><filter id="filter0_d" x="4.605" y="3.045" width="172.865" height="178.01" filterUnits="userSpaceOnUse" color-interpolation-filters="sRGB"><feFlood flood-opacity="0" result="BackgroundImageFix"/><feColorMatrix in="SourceAlpha" values="0 0 0 0 0 0 0 0 0 0 0 0 0 0 0 0 0 0 127 0"/><feOffset dy="1.012"/><feGaussianBlur stdDeviation="2.024"/><feColorMatrix values="0 0 0 0 0 0 0 0 0 0 0 0 0 0 0 0 0 0 0.25 0"/><feBlend in2="BackgroundImageFix" result="effect1_dropShadow"/><feBlend in="SourceGraphic" in2="effect1_dropShadow" result="shape"/></filter></defs></svg>