<svg fill="none" xmlns="http://www.w3.org/2000/svg" viewBox="0 0 488 133"><path d="M202.04 34.8c.832 0 1.504.256 2.016.768.576.512.864 1.184.864 2.016 0 .832-.288 1.504-.864 2.016-.512.448-1.184.672-2.016.672h-19.872V99.12c0 .832-.288 1.536-.864 2.112-.576.512-1.28.768-2.112.768-.896 0-1.632-.256-2.208-.768-.512-.576-.768-1.28-.768-2.112V40.272h-19.872c-.832 0-1.536-.256-2.112-.768-.512-.512-.768-1.184-.768-2.016 0-.768.256-1.408.768-1.92.576-.512 1.28-.768 2.112-.768h45.696zm53.222 39.84c0 .768-.288 1.44-.864 2.016a2.94 2.94 0 01-2.016.768h-36.288c0 3.84.768 7.296 2.304 10.368 1.6 3.008 3.84 5.408 6.72 7.2 2.944 1.728 6.4 2.592 10.368 2.592 3.072 0 5.824-.64 8.256-1.92 2.432-1.28 4.384-2.912 5.856-4.896.704-.576 1.376-.864 2.016-.864.64 0 1.216.256 1.728.768s.768 1.088.768 1.728c0 .704-.32 1.376-.96 2.016-2.048 2.496-4.64 4.544-7.776 6.144a20.9 20.9 0 01-9.792 2.4c-4.928 0-9.28-1.056-13.056-3.168s-6.72-5.056-8.832-8.832c-2.112-3.84-3.168-8.256-3.168-13.248 0-5.248 1.024-9.824 3.072-13.728 2.112-3.968 4.896-6.976 8.352-9.024 3.456-2.112 7.136-3.168 11.04-3.168 3.84 0 7.424.896 10.752 2.688 3.392 1.792 6.144 4.416 8.256 7.872 2.112 3.456 3.2 7.552 3.264 12.288zM232.99 57.36c-3.712 0-7.168 1.28-10.368 3.84-3.136 2.56-5.152 6.24-6.048 11.04h32.736v-.768c-.32-2.88-1.28-5.376-2.88-7.488-1.6-2.176-3.616-3.808-6.048-4.896-2.368-1.152-4.832-1.728-7.392-1.728zm83.959-4.416c.832 0 1.504.288 2.016.864.576.576.864 1.28.864 2.112v43.2c0 .832-.288 1.536-.864 2.112-.512.512-1.184.768-2.016.768-.832 0-1.536-.256-2.112-.768-.512-.576-.768-1.28-.768-2.112v-6.432c-1.6 2.88-4 5.312-7.2 7.296s-6.688 2.976-10.464 2.976c-4.288 0-8.16-1.12-11.616-3.36-3.392-2.24-6.08-5.312-8.064-9.216-1.92-3.904-2.88-8.288-2.88-13.152 0-4.864.992-9.216 2.976-13.056 1.984-3.904 4.672-6.944 8.064-9.12 3.456-2.176 7.264-3.264 11.424-3.264 3.84 0 7.36.928 10.56 2.784 3.2 1.856 5.6 4.288 7.2 7.296V55.92c0-.832.256-1.536.768-2.112.576-.576 1.28-.864 2.112-.864zm-19.968 44.64c3.328 0 6.304-.864 8.928-2.592 2.688-1.792 4.768-4.224 6.24-7.296 1.536-3.136 2.304-6.624 2.304-10.464 0-3.712-.768-7.104-2.304-10.176-1.472-3.072-3.552-5.472-6.24-7.2-2.624-1.792-5.6-2.688-8.928-2.688-3.328 0-6.336.864-9.024 2.592-2.624 1.728-4.704 4.128-6.24 7.2-1.472 3.008-2.208 6.432-2.208 10.272s.736 7.328 2.208 10.464c1.472 3.072 3.52 5.504 6.144 7.296 2.688 1.728 5.728 2.592 9.12 2.592zm53.814 1.536c0 .832-.288 1.536-.864 2.112-.512.512-1.184.768-2.016.768-.832 0-1.536-.256-2.112-.768-.512-.576-.768-1.28-.768-2.112V33.84c0-.832.256-1.504.768-2.016.576-.576 1.28-.864 2.112-.864.832 0 1.504.288 2.016.864.576.512.864 1.184.864 2.016v65.28zm74.349-64.32c.832 0 1.504.288 2.016.864.576.512.864 1.184.864 2.016v39.744c0 4.672-1.12 8.96-3.36 12.864-2.24 3.904-5.28 6.976-9.12 9.216-3.84 2.24-8.064 3.36-12.672 3.36-4.672 0-8.928-1.12-12.768-3.36-3.84-2.24-6.88-5.312-9.12-9.216-2.24-3.904-3.36-8.192-3.36-12.864V37.68c0-.832.256-1.504.768-2.016.576-.576 1.344-.864 2.304-.864.768 0 1.44.288 2.016.864.576.512.864 1.184.864 2.016v39.744c0 3.584.864 6.88 2.592 9.888 1.728 3.008 4.064 5.408 7.008 7.2 3.008 1.728 6.24 2.592 9.696 2.592 3.52 0 6.752-.864 9.696-2.592 3.008-1.792 5.376-4.192 7.104-7.2 1.792-3.008 2.688-6.304 2.688-9.888V37.68c0-.832.256-1.504.768-2.016.512-.576 1.184-.864 2.016-.864zm36.566 64.224a3.243 3.243 0 01-.96 2.112c-.576.576-1.28.864-2.112.864-.896 0-1.632-.256-2.208-.768-.512-.576-.768-1.312-.768-2.208V37.776c0-.896.288-1.6.864-2.112.576-.576 1.312-.864 2.208-.864.832 0 1.536.288 2.112.864.576.576.864 1.28.864 2.112v61.248z" fill="#F0F0F0"/><g filter="url(#filter0_d)"><path d="M101.506 8.386c4.288.007 8.246 2.3 10.383 6.016l26.31 45.733a12 12 0 01-.018 12l-26.451 45.651a12.001 12.001 0 01-10.401 5.984l-52.76-.081a12.001 12.001 0 01-10.383-6.016L11.876 71.94a12 12 0 01.018-12l26.45-45.65a12 12 0 0110.402-5.985l52.76.081z" fill="#fff"/></g><path d="M71.971 74.226c1.348-2.329 4.71-2.329 6.058 0l24.328 42.02c1.351 2.334-.333 5.254-3.03 5.254H50.673c-2.696 0-4.38-2.92-3.029-5.254l24.328-42.02z" fill="#69D2D2" stroke="#fff" stroke-width="3"/><path d="M78.029 57.774c-1.348 2.329-4.71 2.329-6.058 0l-24.328-42.02c-1.35-2.334.333-5.254 3.03-5.254h48.655c2.696 0 4.38 2.92 3.029 5.254l-24.328 42.02z" fill="#1E7E7E" stroke="#fff" stroke-width="3"/><path d="M104.971 17.226c1.348-2.329 4.71-2.329 6.058 0l24.328 42.02c1.351 2.334-.333 5.254-3.029 5.254H83.672c-2.696 0-4.38-2.92-3.029-5.254l24.328-42.02z" fill="#259E9E" stroke="#fff" stroke-width="3"/><path d="M111.029 114.774c-1.348 2.329-4.71 2.329-6.058 0l-24.328-42.02c-1.35-2.334.333-5.254 3.03-5.254h48.655c2.696 0 4.38 2.92 3.029 5.254l-24.328 42.02z" fill="#1E7E7E" stroke="#fff" stroke-width="3"/><path fill-rule="evenodd" clip-rule="evenodd" d="M71.703 68.773a5 5 0 000-4.79l-23.788-43.59c-1.895-3.474-6.882-3.474-8.778 0L15.35 63.983a5 5 0 000 4.79l23.787 43.59c1.896 3.473 6.883 3.473 8.778 0l23.788-43.59z" fill="#165F5F"/><defs><filter id="filter0_d" x="-11.395" y="-21.956" width="172.865" height="178.01" filterUnits="userSpaceOnUse" color-interpolation-filters="sRGB"><feFlood flood-opacity="0" result="BackgroundImageFix"/><feColorMatrix in="SourceAlpha" values="0 0 0 0 0 0 0 0 0 0 0 0 0 0 0 0 0 0 127 0"/><feOffset dy="1.012"/><feGaussianBlur stdDeviation="2.024"/><feColorMatrix values="0 0 0 0 0 0 0 0 0 0 0 0 0 0 0 0 0 0 0.25 0"/><feBlend in2="BackgroundImageFix" result="effect1_dropShadow"/><feBlend in="SourceGraphic" in2="effect1_dropShadow" result="shape"/></filter></defs></svg>