<svg fill="none" xmlns="http://www.w3.org/2000/svg" viewBox="0 0 133 133"><path d="M129.633 60.885l-26.31-45.732a12.5 12.5 0 00-10.816-6.267l-52.76-.08a12.5 12.5 0 00-10.835 6.233l-26.45 45.65a12.5 12.5 0 00-.02 12.5l26.31 45.733a12.5 12.5 0 0010.816 6.267l52.76.081a12.498 12.498 0 0010.835-6.234l26.451-45.65a12.502 12.502 0 00.019-12.5z" fill="#fff" stroke="#858585"/><path d="M69.029 75.226l24.328 42.02c1.35 2.334-.333 5.254-3.03 5.254H41.673c-2.696 0-4.38-2.92-3.029-5.254l24.328-42.02c1.348-2.329 4.71-2.329 6.058 0z" fill="#D6D6D6" stroke="#fff" stroke-width="3"/><path d="M62.971 58.774l-24.328-42.02c-1.35-2.334.333-5.254 3.03-5.254h48.655c2.696 0 4.38 2.92 3.029 5.254l-24.328 42.02c-1.348 2.329-4.71 2.329-6.058 0z" fill="#818181" stroke="#fff" stroke-width="3"/><path d="M102.029 18.226l24.328 42.02c1.351 2.334-.333 5.254-3.029 5.254H74.672c-2.696 0-4.38-2.92-3.029-5.254l24.328-42.02c1.348-2.329 4.71-2.329 6.058 0z" fill="#A5A5A5" stroke="#fff" stroke-width="3"/><path d="M95.971 115.774l-24.328-42.02c-1.35-2.334.333-5.254 3.03-5.254h48.655c2.696 0 4.38 2.92 3.029 5.254l-24.328 42.02c-1.348 2.329-4.71 2.329-6.058 0z" fill="#818181" stroke="#fff" stroke-width="3"/><path fill-rule="evenodd" clip-rule="evenodd" d="M62.703 69.773a5 5 0 000-4.79l-23.788-43.59c-1.895-3.474-6.882-3.474-8.778 0L6.35 64.983a5 5 0 000 4.79l23.787 43.59c1.896 3.473 6.883 3.473 8.778 0l23.788-43.59z" fill="#656565"/></svg>