<svg fill="none" xmlns="http://www.w3.org/2000/svg" viewBox="0 0 557 147"><path d="M240.84 44.8c.832 0 1.504.256 2.016.768.576.512.864 1.184.864 2.016 0 .832-.288 1.504-.864 2.016-.512.448-1.184.672-2.016.672h-19.872v58.848c0 .832-.288 1.536-.864 2.112-.576.512-1.28.768-2.112.768-.896 0-1.632-.256-2.208-.768-.512-.576-.768-1.28-.768-2.112V50.272h-19.872c-.832 0-1.536-.256-2.112-.768-.512-.512-.768-1.184-.768-2.016 0-.768.256-1.408.768-1.92.576-.512 1.28-.768 2.112-.768h45.696zm53.222 39.84c0 .768-.288 1.44-.864 2.016-.576.512-1.248.768-2.016.768h-36.288c0 3.84.768 7.296 2.304 10.368 1.6 3.008 3.84 5.408 6.72 7.2 2.944 1.728 6.4 2.592 10.368 2.592 3.072 0 5.824-.64 8.256-1.92 2.432-1.28 4.384-2.912 5.856-4.896.704-.576 1.376-.864 2.016-.864.64 0 1.216.256 1.728.768s.768 1.088.768 1.728c0 .704-.32 1.376-.96 2.016-2.048 2.496-4.64 4.544-7.776 6.144-3.072 1.6-6.336 2.4-9.792 2.4-4.928 0-9.28-1.056-13.056-3.168s-6.72-5.056-8.832-8.832c-2.112-3.84-3.168-8.256-3.168-13.248 0-5.248 1.024-9.824 3.072-13.728 2.112-3.968 4.896-6.976 8.352-9.024 3.456-2.112 7.136-3.168 11.04-3.168 3.84 0 7.424.896 10.752 2.688 3.392 1.792 6.144 4.416 8.256 7.872 2.112 3.456 3.2 7.552 3.264 12.288zM271.79 67.36c-3.712 0-7.168 1.28-10.368 3.84-3.136 2.56-5.152 6.24-6.048 11.04h32.736v-.768c-.32-2.88-1.28-5.376-2.88-7.488-1.6-2.176-3.616-3.808-6.048-4.896-2.368-1.152-4.832-1.728-7.392-1.728zm83.959-4.416c.832 0 1.504.288 2.016.864.576.576.864 1.28.864 2.112v43.2c0 .832-.288 1.536-.864 2.112-.512.512-1.184.768-2.016.768-.832 0-1.536-.256-2.112-.768-.512-.576-.768-1.28-.768-2.112v-6.432c-1.6 2.88-4 5.312-7.2 7.296s-6.688 2.976-10.464 2.976c-4.288 0-8.16-1.12-11.616-3.36-3.392-2.24-6.08-5.312-8.064-9.216-1.92-3.904-2.88-8.288-2.88-13.152 0-4.864.992-9.216 2.976-13.056 1.984-3.904 4.672-6.944 8.064-9.12 3.456-2.176 7.264-3.264 11.424-3.264 3.84 0 7.36.928 10.56 2.784 3.2 1.856 5.6 4.288 7.2 7.296V65.92c0-.832.256-1.536.768-2.112.576-.576 1.28-.864 2.112-.864zm-19.968 44.64c3.328 0 6.304-.864 8.928-2.592 2.688-1.792 4.768-4.224 6.24-7.296 1.536-3.136 2.304-6.624 2.304-10.464 0-3.712-.768-7.104-2.304-10.176-1.472-3.072-3.552-5.472-6.24-7.2-2.624-1.792-5.6-2.688-8.928-2.688-3.328 0-6.336.864-9.024 2.592-2.624 1.728-4.704 4.128-6.24 7.2-1.472 3.008-2.208 6.432-2.208 10.272s.736 7.328 2.208 10.464c1.472 3.072 3.52 5.504 6.144 7.296 2.688 1.728 5.728 2.592 9.12 2.592zm53.814 1.536c0 .832-.288 1.536-.864 2.112-.512.512-1.184.768-2.016.768-.832 0-1.536-.256-2.112-.768-.512-.576-.768-1.28-.768-2.112V43.84c0-.832.256-1.504.768-2.016.576-.576 1.28-.864 2.112-.864.832 0 1.504.288 2.016.864.576.512.864 1.184.864 2.016v65.28zm74.349-64.32c.832 0 1.504.288 2.016.864.576.512.864 1.184.864 2.016v39.744c0 4.672-1.12 8.96-3.36 12.864-2.24 3.904-5.28 6.976-9.12 9.216-3.84 2.24-8.064 3.36-12.672 3.36-4.672 0-8.928-1.12-12.768-3.36-3.84-2.24-6.88-5.312-9.12-9.216-2.24-3.904-3.36-8.192-3.36-12.864V47.68c0-.832.256-1.504.768-2.016.576-.576 1.344-.864 2.304-.864.768 0 1.44.288 2.016.864.576.512.864 1.184.864 2.016v39.744c0 3.584.864 6.88 2.592 9.888 1.728 3.008 4.064 5.408 7.008 7.2 3.008 1.728 6.24 2.592 9.696 2.592 3.52 0 6.752-.864 9.696-2.592 3.008-1.792 5.376-4.192 7.104-7.2 1.792-3.008 2.688-6.304 2.688-9.888V47.68c0-.832.256-1.504.768-2.016.512-.576 1.184-.864 2.016-.864zm36.566 64.224c-.064.832-.384 1.536-.961 2.112-.575.576-1.279.864-2.111.864-.896 0-1.632-.256-2.208-.768-.512-.576-.768-1.312-.768-2.208V47.776c0-.896.288-1.6.864-2.112.576-.576 1.312-.864 2.208-.864.832 0 1.536.288 2.112.864.576.576.864 1.28.864 2.112v61.248z" fill="#fff"/><path d="M170.633 69.8853l-26.31-45.7323c-2.227-3.8709-6.35-6.2597-10.816-6.2666l-52.7601-.0811c-4.4658-.0069-8.5961 2.3692-10.8349 6.2333L43.4616 69.6898c-2.2389 3.8641-2.2462 8.629-.0192 12.5l26.3098 45.7322c2.227 3.871 6.3499 6.26 10.8157 6.267l52.7601.081c4.466.007 8.596-2.369 10.835-6.234l26.451-45.6507c2.238-3.8641 2.246-8.629.019-12.5z" fill="#fff" stroke="#2BB9B9"/><path d="M138.115 126.434c-.721 1.184-2.004 1.91-3.39 1.919l-48.2378.313c-3.1148.02-5.0564-3.371-3.4627-6.047l24.8125-41.6656c.721-1.2113 2.027-1.9534 3.437-1.9534h48.607c3.121 0 5.04 3.4149 3.416 6.0804l-25.182 41.3536z" fill="url(#paint0_linear)"/><path d="M48.1534 78.9662c-.715-1.2188-.7338-2.7244-.0497-3.9607l23.9268-43.2361c1.5159-2.7393 5.4491-2.7539 6.9852-.0259l24.3463 43.2354c.704 1.2499.684 2.7811-.051 4.0128L78.9645 119.78c-1.5587 2.611-5.346 2.597-6.8848-.026L48.1534 78.9662z" fill="url(#paint1_linear)"/><path d="M135.359 23.0978c1.432 0 2.755.7653 3.468 2.0067l24.887 43.3002c1.533 2.6667-.392 5.9932-3.468 5.9932h-48.392c-1.453 0-2.792-.7875-3.497-2.0574L84.3014 29.0403c-1.4812-2.6661.4467-5.9425 3.4966-5.9425h47.561z" fill="url(#paint2_linear)"/><defs><linearGradient id="paint0_linear" x1="111" y1="124" x2="141" y2="37" gradientUnits="userSpaceOnUse"><stop stop-color="#2BB9B9"/><stop offset="1" stop-color="#B4DEBD"/></linearGradient><linearGradient id="paint1_linear" x1="51.5" y1="95.5" x2="120" y2="32.5" gradientUnits="userSpaceOnUse"><stop stop-color="#2BB9B9"/><stop offset="1" stop-color="#B4DEBD"/></linearGradient><linearGradient id="paint2_linear" x1="93" y1="89.5" x2="132" y2="31.5" gradientUnits="userSpaceOnUse"><stop stop-color="#2BB9B9"/><stop offset="1" stop-color="#B4DEBD"/></linearGradient></defs></svg>