<svg fill="none" xmlns="http://www.w3.org/2000/svg" viewBox="0 0 631 151"><rect width="631" height="151" rx="10" fill="#2E2E2E"/><path d="M229.795 44.8c.832 0 1.504.256 2.016.768.576.512.864 1.184.864 2.016 0 .832-.288 1.504-.864 2.016-.512.448-1.184.672-2.016.672h-19.872v58.848c0 .832-.288 1.536-.864 2.112-.576.512-1.28.768-2.112.768-.896 0-1.632-.256-2.208-.768-.512-.576-.768-1.28-.768-2.112V50.272h-19.872c-.832 0-1.536-.256-2.112-.768-.512-.512-.768-1.184-.768-2.016 0-.768.256-1.408.768-1.92.576-.512 1.28-.768 2.112-.768h45.696zm57.062 39.84c0 .768-.288 1.44-.864 2.016-.576.512-1.248.768-2.016.768h-36.288c0 3.84.768 7.296 2.304 10.368 1.6 3.008 3.84 5.408 6.72 7.2 2.944 1.728 6.4 2.592 10.368 2.592 3.072 0 5.824-.64 8.256-1.92 2.432-1.28 4.384-2.912 5.856-4.896.704-.576 1.376-.864 2.016-.864.64 0 1.216.256 1.728.768s.768 1.088.768 1.728c0 .704-.32 1.376-.96 2.016-2.048 2.496-4.64 4.544-7.776 6.144-3.072 1.6-6.336 2.4-9.792 2.4-4.928 0-9.28-1.056-13.056-3.168s-6.72-5.056-8.832-8.832c-2.112-3.84-3.168-8.256-3.168-13.248 0-5.248 1.024-9.824 3.072-13.728 2.112-3.968 4.896-6.976 8.352-9.024 3.456-2.112 7.136-3.168 11.04-3.168 3.84 0 7.424.896 10.752 2.688 3.392 1.792 6.144 4.416 8.256 7.872 2.112 3.456 3.2 7.552 3.264 12.288zm-22.272-17.28c-3.712 0-7.168 1.28-10.368 3.84-3.136 2.56-5.152 6.24-6.048 11.04h32.736v-.768c-.32-2.88-1.28-5.376-2.88-7.488-1.6-2.176-3.616-3.808-6.048-4.896-2.368-1.152-4.832-1.728-7.392-1.728zm87.799-4.416c.832 0 1.504.288 2.016.864.576.576.864 1.28.864 2.112v43.2c0 .832-.288 1.536-.864 2.112-.512.512-1.184.768-2.016.768-.832 0-1.536-.256-2.112-.768-.512-.576-.768-1.28-.768-2.112v-6.432c-1.6 2.88-4 5.312-7.2 7.296s-6.688 2.976-10.464 2.976c-4.288 0-8.16-1.12-11.616-3.36-3.392-2.24-6.08-5.312-8.064-9.216-1.92-3.904-2.88-8.288-2.88-13.152 0-4.864.992-9.216 2.976-13.056 1.984-3.904 4.672-6.944 8.064-9.12 3.456-2.176 7.264-3.264 11.424-3.264 3.84 0 7.36.928 10.56 2.784 3.2 1.856 5.6 4.288 7.2 7.296V65.92c0-.832.256-1.536.768-2.112.576-.576 1.28-.864 2.112-.864zm-19.968 44.64c3.328 0 6.304-.864 8.928-2.592 2.688-1.792 4.768-4.224 6.24-7.296 1.536-3.136 2.304-6.624 2.304-10.464 0-3.712-.768-7.104-2.304-10.176-1.472-3.072-3.552-5.472-6.24-7.2-2.624-1.792-5.6-2.688-8.928-2.688-3.328 0-6.336.864-9.024 2.592-2.624 1.728-4.704 4.128-6.24 7.2-1.472 3.008-2.208 6.432-2.208 10.272s.736 7.328 2.208 10.464c1.472 3.072 3.52 5.504 6.144 7.296 2.688 1.728 5.728 2.592 9.12 2.592z" fill="#fff"/><path d="M390.07 109.12c0 .832-.288 1.536-.864 2.112-.512.512-1.184.768-2.016.768-.832 0-1.536-.256-2.112-.768-.512-.576-.768-1.28-.768-2.112V43.84c0-.832.256-1.504.768-2.016.576-.576 1.28-.864 2.112-.864.832 0 1.504.288 2.016.864.576.512.864 1.184.864 2.016v65.28zm69.763-24.48c0 .768-.288 1.44-.864 2.016-.576.512-1.248.768-2.016.768h-36.288c0 3.84.768 7.296 2.304 10.368 1.6 3.008 3.84 5.408 6.72 7.2 2.944 1.728 6.4 2.592 10.368 2.592 3.072 0 5.824-.64 8.256-1.92 2.432-1.28 4.384-2.912 5.856-4.896.704-.576 1.376-.864 2.016-.864.64 0 1.216.256 1.728.768s.768 1.088.768 1.728c0 .704-.32 1.376-.96 2.016-2.048 2.496-4.64 4.544-7.776 6.144-3.072 1.6-6.336 2.4-9.792 2.4-4.928 0-9.28-1.056-13.056-3.168s-6.72-5.056-8.832-8.832c-2.112-3.84-3.168-8.256-3.168-13.248 0-5.248 1.024-9.824 3.072-13.728 2.112-3.968 4.896-6.976 8.352-9.024 3.456-2.112 7.136-3.168 11.04-3.168 3.84 0 7.424.896 10.752 2.688 3.392 1.792 6.144 4.416 8.256 7.872 2.112 3.456 3.2 7.552 3.264 12.288zm-22.272-17.28c-3.712 0-7.168 1.28-10.368 3.84-3.136 2.56-5.152 6.24-6.048 11.04h32.736v-.768c-.32-2.88-1.28-5.376-2.88-7.488-1.6-2.176-3.616-3.808-6.048-4.896-2.368-1.152-4.832-1.728-7.392-1.728zm87.799-4.416c.832 0 1.504.288 2.016.864.576.576.864 1.28.864 2.112v43.2c0 .832-.288 1.536-.864 2.112-.512.512-1.184.768-2.016.768-.832 0-1.536-.256-2.112-.768-.512-.576-.768-1.28-.768-2.112v-6.432c-1.6 2.88-4 5.312-7.2 7.296s-6.688 2.976-10.464 2.976c-4.288 0-8.16-1.12-11.616-3.36-3.392-2.24-6.08-5.312-8.064-9.216-1.92-3.904-2.88-8.288-2.88-13.152 0-4.864.992-9.216 2.976-13.056 1.984-3.904 4.672-6.944 8.064-9.12 3.456-2.176 7.264-3.264 11.424-3.264 3.84 0 7.36.928 10.56 2.784 3.2 1.856 5.6 4.288 7.2 7.296V65.92c0-.832.256-1.536.768-2.112.576-.576 1.28-.864 2.112-.864zm-19.968 44.64c3.328 0 6.304-.864 8.928-2.592 2.688-1.792 4.768-4.224 6.24-7.296 1.536-3.136 2.304-6.624 2.304-10.464 0-3.712-.768-7.104-2.304-10.176-1.472-3.072-3.552-5.472-6.24-7.2-2.624-1.792-5.6-2.688-8.928-2.688-3.328 0-6.336.864-9.024 2.592-2.624 1.728-4.704 4.128-6.24 7.2-1.472 3.008-2.208 6.432-2.208 10.272s.736 7.328 2.208 10.464c1.472 3.072 3.52 5.504 6.144 7.296 2.688 1.728 5.728 2.592 9.12 2.592zm68.406-61.152c-2.048 0-3.648.672-4.8 2.016-1.088 1.344-1.632 3.2-1.632 5.568v9.888h10.752c.704 0 1.312.256 1.824.768.576.512.864 1.152.864 1.92s-.288 1.408-.864 1.92c-.512.512-1.12.768-1.824.768h-10.752v39.84c0 .832-.288 1.536-.864 2.112-.512.512-1.184.768-2.016.768-.832 0-1.536-.256-2.112-.768-.512-.576-.768-1.28-.768-2.112V69.28h-7.008c-.768 0-1.408-.256-1.92-.768-.512-.576-.768-1.216-.768-1.92 0-.832.256-1.472.768-1.92.512-.512 1.152-.768 1.92-.768h7.008v-9.888c0-4.032 1.152-7.136 3.456-9.312 2.368-2.24 5.504-3.36 9.408-3.36 1.792 0 3.456.288 4.992.864 1.536.512 2.304 1.376 2.304 2.592 0 .768-.256 1.408-.768 1.92s-1.088.768-1.728.768c-.576 0-1.28-.16-2.112-.48-1.408-.384-2.528-.576-3.36-.576z" fill="#2BB9B9"/><path d="M53 40c26.1171 0 47.289 21.1721 47.289 47.2892V115C74.1721 115 53 93.8279 53 67.7108V40z" fill="url(#paint0_linear)"/><path d="M106.711 87.2892C106.711 61.1721 127.883 40 154 40v27.7108C154 93.8279 132.828 115 106.711 115V87.2892z" fill="url(#paint1_linear)"/><defs><linearGradient id="paint0_linear" x1="76.5318" y1="103.551" x2="113.957" y2="37.1142" gradientUnits="userSpaceOnUse"><stop stop-color="#2BB9B9"/><stop offset="1" stop-color="#B4DEBD"/></linearGradient><linearGradient id="paint1_linear" x1="83.9299" y1="103.001" x2="129.764" y2="25.7538" gradientUnits="userSpaceOnUse"><stop stop-color="#2BB9B9"/><stop offset="1" stop-color="#B4DEBD"/></linearGradient></defs></svg>