<svg width="632" height="151" viewBox="0 0 632 151" fill="none" xmlns="http://www.w3.org/2000/svg">
<rect width="632" height="151" rx="10" fill="white"/>
<path d="M53 35H50V38V65.7108C50 93.4848 72.5153 116 100.289 116H103.289V113V85.2892C103.289 57.5152 80.774 35 53 35Z" fill="url(#paint0_linear)" stroke="#FBFBFB" stroke-width="6"/>
<path d="M157 38V35H154C126.226 35 103.711 57.5152 103.711 85.2892V113V116H106.711C134.485 116 157 93.4847 157 65.7108V38Z" fill="url(#paint1_linear)" stroke="#FBFBFB" stroke-width="6"/>
<mask id="path-4-outside-1" maskUnits="userSpaceOnUse" x="176.621" y="34.96" width="410" height="80" fill="black">
<rect fill="white" x="176.621" y="34.96" width="410" height="80"/>
<path d="M229.197 42.8C230.029 42.8 230.701 43.056 231.213 43.568C231.789 44.08 232.077 44.752 232.077 45.584C232.077 46.416 231.789 47.088 231.213 47.6C230.701 48.048 230.029 48.272 229.197 48.272H209.325V107.12C209.325 107.952 209.037 108.656 208.461 109.232C207.885 109.744 207.181 110 206.349 110C205.453 110 204.717 109.744 204.141 109.232C203.629 108.656 203.373 107.952 203.373 107.12V48.272H183.501C182.669 48.272 181.965 48.016 181.389 47.504C180.877 46.992 180.621 46.32 180.621 45.488C180.621 44.72 180.877 44.08 181.389 43.568C181.965 43.056 182.669 42.8 183.501 42.8H229.197Z"/>
<path d="M286.26 82.64C286.26 83.408 285.972 84.08 285.396 84.656C284.82 85.168 284.148 85.424 283.38 85.424H247.092C247.092 89.264 247.86 92.72 249.396 95.792C250.996 98.8 253.236 101.2 256.116 102.992C259.06 104.72 262.516 105.584 266.484 105.584C269.556 105.584 272.308 104.944 274.74 103.664C277.172 102.384 279.124 100.752 280.596 98.768C281.3 98.192 281.972 97.904 282.612 97.904C283.252 97.904 283.828 98.16 284.34 98.672C284.852 99.184 285.108 99.76 285.108 100.4C285.108 101.104 284.788 101.776 284.148 102.416C282.1 104.912 279.508 106.96 276.372 108.56C273.3 110.16 270.036 110.96 266.58 110.96C261.652 110.96 257.3 109.904 253.524 107.792C249.748 105.68 246.804 102.736 244.692 98.96C242.58 95.12 241.524 90.704 241.524 85.712C241.524 80.464 242.548 75.888 244.596 71.984C246.708 68.016 249.492 65.008 252.948 62.96C256.404 60.848 260.084 59.792 263.988 59.792C267.828 59.792 271.412 60.688 274.74 62.48C278.132 64.272 280.884 66.896 282.996 70.352C285.108 73.808 286.196 77.904 286.26 82.64ZM263.988 65.36C260.276 65.36 256.82 66.64 253.62 69.2C250.484 71.76 248.468 75.44 247.572 80.24H280.308V79.472C279.988 76.592 279.028 74.096 277.428 71.984C275.828 69.808 273.812 68.176 271.38 67.088C269.012 65.936 266.548 65.36 263.988 65.36Z"/>
<path d="M351.786 60.944C352.618 60.944 353.29 61.232 353.802 61.808C354.378 62.384 354.666 63.088 354.666 63.92V107.12C354.666 107.952 354.378 108.656 353.802 109.232C353.29 109.744 352.618 110 351.786 110C350.954 110 350.25 109.744 349.674 109.232C349.162 108.656 348.906 107.952 348.906 107.12V100.688C347.306 103.568 344.906 106 341.706 107.984C338.506 109.968 335.018 110.96 331.242 110.96C326.954 110.96 323.082 109.84 319.626 107.6C316.234 105.36 313.546 102.288 311.562 98.384C309.642 94.48 308.682 90.096 308.682 85.232C308.682 80.368 309.674 76.016 311.658 72.176C313.642 68.272 316.33 65.232 319.722 63.056C323.178 60.88 326.986 59.792 331.146 59.792C334.986 59.792 338.506 60.72 341.706 62.576C344.906 64.432 347.306 66.864 348.906 69.872V63.92C348.906 63.088 349.162 62.384 349.674 61.808C350.25 61.232 350.954 60.944 351.786 60.944ZM331.818 105.584C335.146 105.584 338.122 104.72 340.746 102.992C343.434 101.2 345.514 98.768 346.986 95.696C348.522 92.56 349.29 89.072 349.29 85.232C349.29 81.52 348.522 78.128 346.986 75.056C345.514 71.984 343.434 69.584 340.746 67.856C338.122 66.064 335.146 65.168 331.818 65.168C328.49 65.168 325.482 66.032 322.794 67.76C320.17 69.488 318.09 71.888 316.554 74.96C315.082 77.968 314.346 81.392 314.346 85.232C314.346 89.072 315.082 92.56 316.554 95.696C318.026 98.768 320.074 101.2 322.698 102.992C325.386 104.72 328.426 105.584 331.818 105.584Z"/>
<path d="M389.472 107.12C389.472 107.952 389.184 108.656 388.608 109.232C388.096 109.744 387.424 110 386.592 110C385.76 110 385.056 109.744 384.48 109.232C383.968 108.656 383.712 107.952 383.712 107.12V41.84C383.712 41.008 383.968 40.336 384.48 39.824C385.056 39.248 385.76 38.96 386.592 38.96C387.424 38.96 388.096 39.248 388.608 39.824C389.184 40.336 389.472 41.008 389.472 41.84V107.12Z"/>
<path d="M460.173 82.64C460.173 83.408 459.885 84.08 459.309 84.656C458.733 85.168 458.061 85.424 457.293 85.424H421.005C421.005 89.264 421.773 92.72 423.309 95.792C424.909 98.8 427.149 101.2 430.029 102.992C432.973 104.72 436.429 105.584 440.397 105.584C443.469 105.584 446.221 104.944 448.653 103.664C451.085 102.384 453.037 100.752 454.509 98.768C455.213 98.192 455.885 97.904 456.525 97.904C457.165 97.904 457.741 98.16 458.253 98.672C458.765 99.184 459.021 99.76 459.021 100.4C459.021 101.104 458.701 101.776 458.061 102.416C456.013 104.912 453.421 106.96 450.285 108.56C447.213 110.16 443.949 110.96 440.493 110.96C435.565 110.96 431.213 109.904 427.437 107.792C423.661 105.68 420.717 102.736 418.605 98.96C416.493 95.12 415.437 90.704 415.437 85.712C415.437 80.464 416.461 75.888 418.509 71.984C420.621 68.016 423.405 65.008 426.861 62.96C430.317 60.848 433.997 59.792 437.901 59.792C441.741 59.792 445.325 60.688 448.653 62.48C452.045 64.272 454.797 66.896 456.909 70.352C459.021 73.808 460.109 77.904 460.173 82.64ZM437.901 65.36C434.189 65.36 430.733 66.64 427.533 69.2C424.397 71.76 422.381 75.44 421.485 80.24H454.221V79.472C453.901 76.592 452.941 74.096 451.341 71.984C449.741 69.808 447.725 68.176 445.293 67.088C442.925 65.936 440.461 65.36 437.901 65.36Z"/>
<path d="M525.7 60.944C526.532 60.944 527.204 61.232 527.716 61.808C528.292 62.384 528.58 63.088 528.58 63.92V107.12C528.58 107.952 528.292 108.656 527.716 109.232C527.204 109.744 526.532 110 525.7 110C524.868 110 524.164 109.744 523.588 109.232C523.076 108.656 522.82 107.952 522.82 107.12V100.688C521.22 103.568 518.82 106 515.62 107.984C512.42 109.968 508.932 110.96 505.156 110.96C500.868 110.96 496.996 109.84 493.54 107.6C490.148 105.36 487.46 102.288 485.476 98.384C483.556 94.48 482.596 90.096 482.596 85.232C482.596 80.368 483.588 76.016 485.572 72.176C487.556 68.272 490.244 65.232 493.636 63.056C497.092 60.88 500.9 59.792 505.06 59.792C508.9 59.792 512.42 60.72 515.62 62.576C518.82 64.432 521.22 66.864 522.82 69.872V63.92C522.82 63.088 523.076 62.384 523.588 61.808C524.164 61.232 524.868 60.944 525.7 60.944ZM505.732 105.584C509.06 105.584 512.036 104.72 514.66 102.992C517.348 101.2 519.428 98.768 520.9 95.696C522.436 92.56 523.204 89.072 523.204 85.232C523.204 81.52 522.436 78.128 520.9 75.056C519.428 71.984 517.348 69.584 514.66 67.856C512.036 66.064 509.06 65.168 505.732 65.168C502.404 65.168 499.396 66.032 496.708 67.76C494.084 69.488 492.004 71.888 490.468 74.96C488.996 77.968 488.26 81.392 488.26 85.232C488.26 89.072 488.996 92.56 490.468 95.696C491.94 98.768 493.988 101.2 496.612 102.992C499.3 104.72 502.34 105.584 505.732 105.584Z"/>
<path d="M574.138 44.432C572.09 44.432 570.49 45.104 569.338 46.448C568.25 47.792 567.706 49.648 567.706 52.016V61.904H578.458C579.162 61.904 579.77 62.16 580.282 62.672C580.858 63.184 581.146 63.824 581.146 64.592C581.146 65.36 580.858 66 580.282 66.512C579.77 67.024 579.162 67.28 578.458 67.28H567.706V107.12C567.706 107.952 567.418 108.656 566.842 109.232C566.33 109.744 565.658 110 564.826 110C563.994 110 563.29 109.744 562.714 109.232C562.202 108.656 561.946 107.952 561.946 107.12V67.28H554.938C554.17 67.28 553.53 67.024 553.018 66.512C552.506 65.936 552.25 65.296 552.25 64.592C552.25 63.76 552.506 63.12 553.018 62.672C553.53 62.16 554.17 61.904 554.938 61.904H561.946V52.016C561.946 47.984 563.098 44.88 565.402 42.704C567.77 40.464 570.906 39.344 574.81 39.344C576.602 39.344 578.266 39.632 579.802 40.208C581.338 40.72 582.106 41.584 582.106 42.8C582.106 43.568 581.85 44.208 581.338 44.72C580.826 45.232 580.25 45.488 579.61 45.488C579.034 45.488 578.33 45.328 577.498 45.008C576.09 44.624 574.97 44.432 574.138 44.432Z"/>
</mask>
<path d="M229.197 42.8C230.029 42.8 230.701 43.056 231.213 43.568C231.789 44.08 232.077 44.752 232.077 45.584C232.077 46.416 231.789 47.088 231.213 47.6C230.701 48.048 230.029 48.272 229.197 48.272H209.325V107.12C209.325 107.952 209.037 108.656 208.461 109.232C207.885 109.744 207.181 110 206.349 110C205.453 110 204.717 109.744 204.141 109.232C203.629 108.656 203.373 107.952 203.373 107.12V48.272H183.501C182.669 48.272 181.965 48.016 181.389 47.504C180.877 46.992 180.621 46.32 180.621 45.488C180.621 44.72 180.877 44.08 181.389 43.568C181.965 43.056 182.669 42.8 183.501 42.8H229.197Z" fill="#595959"/>
<path d="M286.26 82.64C286.26 83.408 285.972 84.08 285.396 84.656C284.82 85.168 284.148 85.424 283.38 85.424H247.092C247.092 89.264 247.86 92.72 249.396 95.792C250.996 98.8 253.236 101.2 256.116 102.992C259.06 104.72 262.516 105.584 266.484 105.584C269.556 105.584 272.308 104.944 274.74 103.664C277.172 102.384 279.124 100.752 280.596 98.768C281.3 98.192 281.972 97.904 282.612 97.904C283.252 97.904 283.828 98.16 284.34 98.672C284.852 99.184 285.108 99.76 285.108 100.4C285.108 101.104 284.788 101.776 284.148 102.416C282.1 104.912 279.508 106.96 276.372 108.56C273.3 110.16 270.036 110.96 266.58 110.96C261.652 110.96 257.3 109.904 253.524 107.792C249.748 105.68 246.804 102.736 244.692 98.96C242.58 95.12 241.524 90.704 241.524 85.712C241.524 80.464 242.548 75.888 244.596 71.984C246.708 68.016 249.492 65.008 252.948 62.96C256.404 60.848 260.084 59.792 263.988 59.792C267.828 59.792 271.412 60.688 274.74 62.48C278.132 64.272 280.884 66.896 282.996 70.352C285.108 73.808 286.196 77.904 286.26 82.64ZM263.988 65.36C260.276 65.36 256.82 66.64 253.62 69.2C250.484 71.76 248.468 75.44 247.572 80.24H280.308V79.472C279.988 76.592 279.028 74.096 277.428 71.984C275.828 69.808 273.812 68.176 271.38 67.088C269.012 65.936 266.548 65.36 263.988 65.36Z" fill="#595959"/>
<path d="M351.786 60.944C352.618 60.944 353.29 61.232 353.802 61.808C354.378 62.384 354.666 63.088 354.666 63.92V107.12C354.666 107.952 354.378 108.656 353.802 109.232C353.29 109.744 352.618 110 351.786 110C350.954 110 350.25 109.744 349.674 109.232C349.162 108.656 348.906 107.952 348.906 107.12V100.688C347.306 103.568 344.906 106 341.706 107.984C338.506 109.968 335.018 110.96 331.242 110.96C326.954 110.96 323.082 109.84 319.626 107.6C316.234 105.36 313.546 102.288 311.562 98.384C309.642 94.48 308.682 90.096 308.682 85.232C308.682 80.368 309.674 76.016 311.658 72.176C313.642 68.272 316.33 65.232 319.722 63.056C323.178 60.88 326.986 59.792 331.146 59.792C334.986 59.792 338.506 60.72 341.706 62.576C344.906 64.432 347.306 66.864 348.906 69.872V63.92C348.906 63.088 349.162 62.384 349.674 61.808C350.25 61.232 350.954 60.944 351.786 60.944ZM331.818 105.584C335.146 105.584 338.122 104.72 340.746 102.992C343.434 101.2 345.514 98.768 346.986 95.696C348.522 92.56 349.29 89.072 349.29 85.232C349.29 81.52 348.522 78.128 346.986 75.056C345.514 71.984 343.434 69.584 340.746 67.856C338.122 66.064 335.146 65.168 331.818 65.168C328.49 65.168 325.482 66.032 322.794 67.76C320.17 69.488 318.09 71.888 316.554 74.96C315.082 77.968 314.346 81.392 314.346 85.232C314.346 89.072 315.082 92.56 316.554 95.696C318.026 98.768 320.074 101.2 322.698 102.992C325.386 104.72 328.426 105.584 331.818 105.584Z" fill="#595959"/>
<path d="M389.472 107.12C389.472 107.952 389.184 108.656 388.608 109.232C388.096 109.744 387.424 110 386.592 110C385.76 110 385.056 109.744 384.48 109.232C383.968 108.656 383.712 107.952 383.712 107.12V41.84C383.712 41.008 383.968 40.336 384.48 39.824C385.056 39.248 385.76 38.96 386.592 38.96C387.424 38.96 388.096 39.248 388.608 39.824C389.184 40.336 389.472 41.008 389.472 41.84V107.12Z" fill="#595959"/>
<path d="M460.173 82.64C460.173 83.408 459.885 84.08 459.309 84.656C458.733 85.168 458.061 85.424 457.293 85.424H421.005C421.005 89.264 421.773 92.72 423.309 95.792C424.909 98.8 427.149 101.2 430.029 102.992C432.973 104.72 436.429 105.584 440.397 105.584C443.469 105.584 446.221 104.944 448.653 103.664C451.085 102.384 453.037 100.752 454.509 98.768C455.213 98.192 455.885 97.904 456.525 97.904C457.165 97.904 457.741 98.16 458.253 98.672C458.765 99.184 459.021 99.76 459.021 100.4C459.021 101.104 458.701 101.776 458.061 102.416C456.013 104.912 453.421 106.96 450.285 108.56C447.213 110.16 443.949 110.96 440.493 110.96C435.565 110.96 431.213 109.904 427.437 107.792C423.661 105.68 420.717 102.736 418.605 98.96C416.493 95.12 415.437 90.704 415.437 85.712C415.437 80.464 416.461 75.888 418.509 71.984C420.621 68.016 423.405 65.008 426.861 62.96C430.317 60.848 433.997 59.792 437.901 59.792C441.741 59.792 445.325 60.688 448.653 62.48C452.045 64.272 454.797 66.896 456.909 70.352C459.021 73.808 460.109 77.904 460.173 82.64ZM437.901 65.36C434.189 65.36 430.733 66.64 427.533 69.2C424.397 71.76 422.381 75.44 421.485 80.24H454.221V79.472C453.901 76.592 452.941 74.096 451.341 71.984C449.741 69.808 447.725 68.176 445.293 67.088C442.925 65.936 440.461 65.36 437.901 65.36Z" fill="#595959"/>
<path d="M525.7 60.944C526.532 60.944 527.204 61.232 527.716 61.808C528.292 62.384 528.58 63.088 528.58 63.92V107.12C528.58 107.952 528.292 108.656 527.716 109.232C527.204 109.744 526.532 110 525.7 110C524.868 110 524.164 109.744 523.588 109.232C523.076 108.656 522.82 107.952 522.82 107.12V100.688C521.22 103.568 518.82 106 515.62 107.984C512.42 109.968 508.932 110.96 505.156 110.96C500.868 110.96 496.996 109.84 493.54 107.6C490.148 105.36 487.46 102.288 485.476 98.384C483.556 94.48 482.596 90.096 482.596 85.232C482.596 80.368 483.588 76.016 485.572 72.176C487.556 68.272 490.244 65.232 493.636 63.056C497.092 60.88 500.9 59.792 505.06 59.792C508.9 59.792 512.42 60.72 515.62 62.576C518.82 64.432 521.22 66.864 522.82 69.872V63.92C522.82 63.088 523.076 62.384 523.588 61.808C524.164 61.232 524.868 60.944 525.7 60.944ZM505.732 105.584C509.06 105.584 512.036 104.72 514.66 102.992C517.348 101.2 519.428 98.768 520.9 95.696C522.436 92.56 523.204 89.072 523.204 85.232C523.204 81.52 522.436 78.128 520.9 75.056C519.428 71.984 517.348 69.584 514.66 67.856C512.036 66.064 509.06 65.168 505.732 65.168C502.404 65.168 499.396 66.032 496.708 67.76C494.084 69.488 492.004 71.888 490.468 74.96C488.996 77.968 488.26 81.392 488.26 85.232C488.26 89.072 488.996 92.56 490.468 95.696C491.94 98.768 493.988 101.2 496.612 102.992C499.3 104.72 502.34 105.584 505.732 105.584Z" fill="#595959"/>
<path d="M574.138 44.432C572.09 44.432 570.49 45.104 569.338 46.448C568.25 47.792 567.706 49.648 567.706 52.016V61.904H578.458C579.162 61.904 579.77 62.16 580.282 62.672C580.858 63.184 581.146 63.824 581.146 64.592C581.146 65.36 580.858 66 580.282 66.512C579.77 67.024 579.162 67.28 578.458 67.28H567.706V107.12C567.706 107.952 567.418 108.656 566.842 109.232C566.33 109.744 565.658 110 564.826 110C563.994 110 563.29 109.744 562.714 109.232C562.202 108.656 561.946 107.952 561.946 107.12V67.28H554.938C554.17 67.28 553.53 67.024 553.018 66.512C552.506 65.936 552.25 65.296 552.25 64.592C552.25 63.76 552.506 63.12 553.018 62.672C553.53 62.16 554.17 61.904 554.938 61.904H561.946V52.016C561.946 47.984 563.098 44.88 565.402 42.704C567.77 40.464 570.906 39.344 574.81 39.344C576.602 39.344 578.266 39.632 579.802 40.208C581.338 40.72 582.106 41.584 582.106 42.8C582.106 43.568 581.85 44.208 581.338 44.72C580.826 45.232 580.25 45.488 579.61 45.488C579.034 45.488 578.33 45.328 577.498 45.008C576.09 44.624 574.97 44.432 574.138 44.432Z" fill="#595959"/>
<path d="M229.197 42.8C230.029 42.8 230.701 43.056 231.213 43.568C231.789 44.08 232.077 44.752 232.077 45.584C232.077 46.416 231.789 47.088 231.213 47.6C230.701 48.048 230.029 48.272 229.197 48.272H209.325V107.12C209.325 107.952 209.037 108.656 208.461 109.232C207.885 109.744 207.181 110 206.349 110C205.453 110 204.717 109.744 204.141 109.232C203.629 108.656 203.373 107.952 203.373 107.12V48.272H183.501C182.669 48.272 181.965 48.016 181.389 47.504C180.877 46.992 180.621 46.32 180.621 45.488C180.621 44.72 180.877 44.08 181.389 43.568C181.965 43.056 182.669 42.8 183.501 42.8H229.197Z" stroke="white" stroke-width="8" mask="url(#path-4-outside-1)"/>
<path d="M286.26 82.64C286.26 83.408 285.972 84.08 285.396 84.656C284.82 85.168 284.148 85.424 283.38 85.424H247.092C247.092 89.264 247.86 92.72 249.396 95.792C250.996 98.8 253.236 101.2 256.116 102.992C259.06 104.72 262.516 105.584 266.484 105.584C269.556 105.584 272.308 104.944 274.74 103.664C277.172 102.384 279.124 100.752 280.596 98.768C281.3 98.192 281.972 97.904 282.612 97.904C283.252 97.904 283.828 98.16 284.34 98.672C284.852 99.184 285.108 99.76 285.108 100.4C285.108 101.104 284.788 101.776 284.148 102.416C282.1 104.912 279.508 106.96 276.372 108.56C273.3 110.16 270.036 110.96 266.58 110.96C261.652 110.96 257.3 109.904 253.524 107.792C249.748 105.68 246.804 102.736 244.692 98.96C242.58 95.12 241.524 90.704 241.524 85.712C241.524 80.464 242.548 75.888 244.596 71.984C246.708 68.016 249.492 65.008 252.948 62.96C256.404 60.848 260.084 59.792 263.988 59.792C267.828 59.792 271.412 60.688 274.74 62.48C278.132 64.272 280.884 66.896 282.996 70.352C285.108 73.808 286.196 77.904 286.26 82.64ZM263.988 65.36C260.276 65.36 256.82 66.64 253.62 69.2C250.484 71.76 248.468 75.44 247.572 80.24H280.308V79.472C279.988 76.592 279.028 74.096 277.428 71.984C275.828 69.808 273.812 68.176 271.38 67.088C269.012 65.936 266.548 65.36 263.988 65.36Z" stroke="white" stroke-width="8" mask="url(#path-4-outside-1)"/>
<path d="M351.786 60.944C352.618 60.944 353.29 61.232 353.802 61.808C354.378 62.384 354.666 63.088 354.666 63.92V107.12C354.666 107.952 354.378 108.656 353.802 109.232C353.29 109.744 352.618 110 351.786 110C350.954 110 350.25 109.744 349.674 109.232C349.162 108.656 348.906 107.952 348.906 107.12V100.688C347.306 103.568 344.906 106 341.706 107.984C338.506 109.968 335.018 110.96 331.242 110.96C326.954 110.96 323.082 109.84 319.626 107.6C316.234 105.36 313.546 102.288 311.562 98.384C309.642 94.48 308.682 90.096 308.682 85.232C308.682 80.368 309.674 76.016 311.658 72.176C313.642 68.272 316.33 65.232 319.722 63.056C323.178 60.88 326.986 59.792 331.146 59.792C334.986 59.792 338.506 60.72 341.706 62.576C344.906 64.432 347.306 66.864 348.906 69.872V63.92C348.906 63.088 349.162 62.384 349.674 61.808C350.25 61.232 350.954 60.944 351.786 60.944ZM331.818 105.584C335.146 105.584 338.122 104.72 340.746 102.992C343.434 101.2 345.514 98.768 346.986 95.696C348.522 92.56 349.29 89.072 349.29 85.232C349.29 81.52 348.522 78.128 346.986 75.056C345.514 71.984 343.434 69.584 340.746 67.856C338.122 66.064 335.146 65.168 331.818 65.168C328.49 65.168 325.482 66.032 322.794 67.76C320.17 69.488 318.09 71.888 316.554 74.96C315.082 77.968 314.346 81.392 314.346 85.232C314.346 89.072 315.082 92.56 316.554 95.696C318.026 98.768 320.074 101.2 322.698 102.992C325.386 104.72 328.426 105.584 331.818 105.584Z" stroke="white" stroke-width="8" mask="url(#path-4-outside-1)"/>
<path d="M389.472 107.12C389.472 107.952 389.184 108.656 388.608 109.232C388.096 109.744 387.424 110 386.592 110C385.76 110 385.056 109.744 384.48 109.232C383.968 108.656 383.712 107.952 383.712 107.12V41.84C383.712 41.008 383.968 40.336 384.48 39.824C385.056 39.248 385.76 38.96 386.592 38.96C387.424 38.96 388.096 39.248 388.608 39.824C389.184 40.336 389.472 41.008 389.472 41.84V107.12Z" stroke="white" stroke-width="8" mask="url(#path-4-outside-1)"/>
<path d="M460.173 82.64C460.173 83.408 459.885 84.08 459.309 84.656C458.733 85.168 458.061 85.424 457.293 85.424H421.005C421.005 89.264 421.773 92.72 423.309 95.792C424.909 98.8 427.149 101.2 430.029 102.992C432.973 104.72 436.429 105.584 440.397 105.584C443.469 105.584 446.221 104.944 448.653 103.664C451.085 102.384 453.037 100.752 454.509 98.768C455.213 98.192 455.885 97.904 456.525 97.904C457.165 97.904 457.741 98.16 458.253 98.672C458.765 99.184 459.021 99.76 459.021 100.4C459.021 101.104 458.701 101.776 458.061 102.416C456.013 104.912 453.421 106.96 450.285 108.56C447.213 110.16 443.949 110.96 440.493 110.96C435.565 110.96 431.213 109.904 427.437 107.792C423.661 105.68 420.717 102.736 418.605 98.96C416.493 95.12 415.437 90.704 415.437 85.712C415.437 80.464 416.461 75.888 418.509 71.984C420.621 68.016 423.405 65.008 426.861 62.96C430.317 60.848 433.997 59.792 437.901 59.792C441.741 59.792 445.325 60.688 448.653 62.48C452.045 64.272 454.797 66.896 456.909 70.352C459.021 73.808 460.109 77.904 460.173 82.64ZM437.901 65.36C434.189 65.36 430.733 66.64 427.533 69.2C424.397 71.76 422.381 75.44 421.485 80.24H454.221V79.472C453.901 76.592 452.941 74.096 451.341 71.984C449.741 69.808 447.725 68.176 445.293 67.088C442.925 65.936 440.461 65.36 437.901 65.36Z" stroke="white" stroke-width="8" mask="url(#path-4-outside-1)"/>
<path d="M525.7 60.944C526.532 60.944 527.204 61.232 527.716 61.808C528.292 62.384 528.58 63.088 528.58 63.92V107.12C528.58 107.952 528.292 108.656 527.716 109.232C527.204 109.744 526.532 110 525.7 110C524.868 110 524.164 109.744 523.588 109.232C523.076 108.656 522.82 107.952 522.82 107.12V100.688C521.22 103.568 518.82 106 515.62 107.984C512.42 109.968 508.932 110.96 505.156 110.96C500.868 110.96 496.996 109.84 493.54 107.6C490.148 105.36 487.46 102.288 485.476 98.384C483.556 94.48 482.596 90.096 482.596 85.232C482.596 80.368 483.588 76.016 485.572 72.176C487.556 68.272 490.244 65.232 493.636 63.056C497.092 60.88 500.9 59.792 505.06 59.792C508.9 59.792 512.42 60.72 515.62 62.576C518.82 64.432 521.22 66.864 522.82 69.872V63.92C522.82 63.088 523.076 62.384 523.588 61.808C524.164 61.232 524.868 60.944 525.7 60.944ZM505.732 105.584C509.06 105.584 512.036 104.72 514.66 102.992C517.348 101.2 519.428 98.768 520.9 95.696C522.436 92.56 523.204 89.072 523.204 85.232C523.204 81.52 522.436 78.128 520.9 75.056C519.428 71.984 517.348 69.584 514.66 67.856C512.036 66.064 509.06 65.168 505.732 65.168C502.404 65.168 499.396 66.032 496.708 67.76C494.084 69.488 492.004 71.888 490.468 74.96C488.996 77.968 488.26 81.392 488.26 85.232C488.26 89.072 488.996 92.56 490.468 95.696C491.94 98.768 493.988 101.2 496.612 102.992C499.3 104.72 502.34 105.584 505.732 105.584Z" stroke="white" stroke-width="8" mask="url(#path-4-outside-1)"/>
<path d="M574.138 44.432C572.09 44.432 570.49 45.104 569.338 46.448C568.25 47.792 567.706 49.648 567.706 52.016V61.904H578.458C579.162 61.904 579.77 62.16 580.282 62.672C580.858 63.184 581.146 63.824 581.146 64.592C581.146 65.36 580.858 66 580.282 66.512C579.77 67.024 579.162 67.28 578.458 67.28H567.706V107.12C567.706 107.952 567.418 108.656 566.842 109.232C566.33 109.744 565.658 110 564.826 110C563.994 110 563.29 109.744 562.714 109.232C562.202 108.656 561.946 107.952 561.946 107.12V67.28H554.938C554.17 67.28 553.53 67.024 553.018 66.512C552.506 65.936 552.25 65.296 552.25 64.592C552.25 63.76 552.506 63.12 553.018 62.672C553.53 62.16 554.17 61.904 554.938 61.904H561.946V52.016C561.946 47.984 563.098 44.88 565.402 42.704C567.77 40.464 570.906 39.344 574.81 39.344C576.602 39.344 578.266 39.632 579.802 40.208C581.338 40.72 582.106 41.584 582.106 42.8C582.106 43.568 581.85 44.208 581.338 44.72C580.826 45.232 580.25 45.488 579.61 45.488C579.034 45.488 578.33 45.328 577.498 45.008C576.09 44.624 574.97 44.432 574.138 44.432Z" stroke="white" stroke-width="8" mask="url(#path-4-outside-1)"/>
<defs>
<linearGradient id="paint0_linear" x1="76.5318" y1="101.551" x2="113.957" y2="35.1142" gradientUnits="userSpaceOnUse">
<stop stop-color="#2BB9B9"/>
<stop offset="1" stop-color="#B4DEBD"/>
</linearGradient>
<linearGradient id="paint1_linear" x1="83.93" y1="101.001" x2="129.765" y2="23.7538" gradientUnits="userSpaceOnUse">
<stop stop-color="#2BB9B9"/>
<stop offset="1" stop-color="#B4DEBD"/>
</linearGradient>
</defs>
</svg>
